<mxfile host="app.diagrams.net" agent="Mozilla/5.0 (Macintosh; Intel Mac OS X 10_15_7) AppleWebKit/537.36 (KHTML, like Gecko) Chrome/134.0.0.0 Safari/537.36" version="26.2.14">
  <diagram name="第 1 页" id="QCS8CQ8ZkW2pabMfx1LJ">
    <mxGraphModel dx="783" dy="530" grid="1" gridSize="10" guides="1" tooltips="1" connect="1" arrows="1" fold="1" page="1" pageScale="1" pageWidth="827" pageHeight="1169" math="0" shadow="0">
      <root>
        <mxCell id="0" />
        <mxCell id="1" parent="0" />
        <mxCell id="I_MQHrugHJeuvMMWOey2-10" value="" style="group" vertex="1" connectable="0" parent="1">
          <mxGeometry x="210" y="210" width="110" height="110" as="geometry" />
        </mxCell>
        <mxCell id="I_MQHrugHJeuvMMWOey2-3" value="CPU0" style="rounded=0;whiteSpace=wrap;html=1;verticalAlign=top;fillColor=#dae8fc;strokeColor=#6c8ebf;" vertex="1" parent="I_MQHrugHJeuvMMWOey2-10">
          <mxGeometry width="110" height="90" as="geometry" />
        </mxCell>
        <mxCell id="I_MQHrugHJeuvMMWOey2-17" style="edgeStyle=orthogonalEdgeStyle;rounded=0;orthogonalLoop=1;jettySize=auto;html=1;" edge="1" parent="I_MQHrugHJeuvMMWOey2-10" source="I_MQHrugHJeuvMMWOey2-4">
          <mxGeometry relative="1" as="geometry">
            <mxPoint x="55" y="147" as="targetPoint" />
          </mxGeometry>
        </mxCell>
        <mxCell id="I_MQHrugHJeuvMMWOey2-4" value="PMP" style="rounded=0;whiteSpace=wrap;html=1;fillColor=#fff2cc;strokeColor=#d6b656;" vertex="1" parent="I_MQHrugHJeuvMMWOey2-10">
          <mxGeometry y="90" width="110" height="20" as="geometry" />
        </mxCell>
        <mxCell id="I_MQHrugHJeuvMMWOey2-6" value="L1 Cache" style="rounded=0;whiteSpace=wrap;html=1;fillColor=#ffe6cc;strokeColor=#d79b00;" vertex="1" parent="I_MQHrugHJeuvMMWOey2-10">
          <mxGeometry x="20" y="30" width="70" height="20" as="geometry" />
        </mxCell>
        <mxCell id="I_MQHrugHJeuvMMWOey2-7" value="L2 Cache" style="rounded=0;whiteSpace=wrap;html=1;fillColor=#ffe6cc;strokeColor=#d79b00;" vertex="1" parent="I_MQHrugHJeuvMMWOey2-10">
          <mxGeometry x="20" y="60" width="70" height="20" as="geometry" />
        </mxCell>
        <mxCell id="I_MQHrugHJeuvMMWOey2-11" value="" style="group" vertex="1" connectable="0" parent="1">
          <mxGeometry x="340" y="210" width="110" height="110" as="geometry" />
        </mxCell>
        <mxCell id="I_MQHrugHJeuvMMWOey2-12" value="CPU1" style="rounded=0;whiteSpace=wrap;html=1;verticalAlign=top;fillColor=#dae8fc;strokeColor=#6c8ebf;" vertex="1" parent="I_MQHrugHJeuvMMWOey2-11">
          <mxGeometry width="110" height="90" as="geometry" />
        </mxCell>
        <mxCell id="I_MQHrugHJeuvMMWOey2-19" style="edgeStyle=orthogonalEdgeStyle;rounded=0;orthogonalLoop=1;jettySize=auto;html=1;" edge="1" parent="I_MQHrugHJeuvMMWOey2-11" source="I_MQHrugHJeuvMMWOey2-13">
          <mxGeometry relative="1" as="geometry">
            <mxPoint x="55" y="147" as="targetPoint" />
          </mxGeometry>
        </mxCell>
        <mxCell id="I_MQHrugHJeuvMMWOey2-13" value="PMP" style="rounded=0;whiteSpace=wrap;html=1;fillColor=#fff2cc;strokeColor=#d6b656;" vertex="1" parent="I_MQHrugHJeuvMMWOey2-11">
          <mxGeometry y="90" width="110" height="20" as="geometry" />
        </mxCell>
        <mxCell id="I_MQHrugHJeuvMMWOey2-14" value="L1 Cache" style="rounded=0;whiteSpace=wrap;html=1;fillColor=#ffe6cc;strokeColor=#d79b00;" vertex="1" parent="I_MQHrugHJeuvMMWOey2-11">
          <mxGeometry x="20" y="30" width="70" height="20" as="geometry" />
        </mxCell>
        <mxCell id="I_MQHrugHJeuvMMWOey2-15" value="L2 Cache" style="rounded=0;whiteSpace=wrap;html=1;fillColor=#ffe6cc;strokeColor=#d79b00;" vertex="1" parent="I_MQHrugHJeuvMMWOey2-11">
          <mxGeometry x="20" y="60" width="70" height="20" as="geometry" />
        </mxCell>
        <mxCell id="I_MQHrugHJeuvMMWOey2-16" value="" style="shape=flexArrow;endArrow=classic;startArrow=classic;html=1;rounded=0;width=6;endSize=2.7011235955056176;targetPerimeterSpacing=0;endWidth=6.966292134831461;startWidth=6.966292134831461;startSize=2.7011235955056176;fillColor=#006600;strokeColor=#006600;" edge="1" parent="1">
          <mxGeometry width="100" height="100" relative="1" as="geometry">
            <mxPoint x="200" y="360" as="sourcePoint" />
            <mxPoint x="680" y="360" as="targetPoint" />
          </mxGeometry>
        </mxCell>
        <mxCell id="I_MQHrugHJeuvMMWOey2-20" value="系统总线" style="text;html=1;align=center;verticalAlign=middle;resizable=0;points=[];autosize=1;strokeColor=none;fillColor=none;" vertex="1" parent="1">
          <mxGeometry x="210" y="360" width="70" height="30" as="geometry" />
        </mxCell>
        <mxCell id="I_MQHrugHJeuvMMWOey2-28" style="edgeStyle=orthogonalEdgeStyle;rounded=0;orthogonalLoop=1;jettySize=auto;html=1;startArrow=classic;startFill=1;endArrow=none;endFill=1;" edge="1" parent="1" source="I_MQHrugHJeuvMMWOey2-27">
          <mxGeometry relative="1" as="geometry">
            <mxPoint x="455" y="363" as="targetPoint" />
          </mxGeometry>
        </mxCell>
        <mxCell id="I_MQHrugHJeuvMMWOey2-30" style="edgeStyle=orthogonalEdgeStyle;rounded=0;orthogonalLoop=1;jettySize=auto;html=1;entryX=0.5;entryY=0;entryDx=0;entryDy=0;" edge="1" parent="1" source="I_MQHrugHJeuvMMWOey2-27" target="I_MQHrugHJeuvMMWOey2-29">
          <mxGeometry relative="1" as="geometry" />
        </mxCell>
        <mxCell id="I_MQHrugHJeuvMMWOey2-27" value="L3 Cache" style="rounded=0;whiteSpace=wrap;html=1;fillColor=#ffe6cc;strokeColor=#d79b00;" vertex="1" parent="1">
          <mxGeometry x="320" y="400" width="270" height="40" as="geometry" />
        </mxCell>
        <mxCell id="I_MQHrugHJeuvMMWOey2-29" value="Memory" style="rounded=0;whiteSpace=wrap;html=1;fillColor=#d5e8d4;strokeColor=#82b366;" vertex="1" parent="1">
          <mxGeometry x="250" y="470" width="410" height="40" as="geometry" />
        </mxCell>
        <mxCell id="I_MQHrugHJeuvMMWOey2-34" style="edgeStyle=orthogonalEdgeStyle;rounded=0;orthogonalLoop=1;jettySize=auto;html=1;" edge="1" parent="1" source="I_MQHrugHJeuvMMWOey2-32">
          <mxGeometry relative="1" as="geometry">
            <mxPoint x="515" y="356" as="targetPoint" />
          </mxGeometry>
        </mxCell>
        <mxCell id="I_MQHrugHJeuvMMWOey2-39" value="AXI" style="edgeLabel;html=1;align=center;verticalAlign=middle;resizable=0;points=[];" vertex="1" connectable="0" parent="I_MQHrugHJeuvMMWOey2-34">
          <mxGeometry x="-0.116" y="2" relative="1" as="geometry">
            <mxPoint x="13" as="offset" />
          </mxGeometry>
        </mxCell>
        <mxCell id="I_MQHrugHJeuvMMWOey2-32" value="IOPMP" style="rounded=0;whiteSpace=wrap;html=1;fillColor=#f8cecc;strokeColor=#b85450;fontStyle=1" vertex="1" parent="1">
          <mxGeometry x="470" y="280" width="90" height="40" as="geometry" />
        </mxCell>
        <mxCell id="I_MQHrugHJeuvMMWOey2-37" style="edgeStyle=orthogonalEdgeStyle;rounded=0;orthogonalLoop=1;jettySize=auto;html=1;entryX=0.5;entryY=0;entryDx=0;entryDy=0;" edge="1" parent="1" source="I_MQHrugHJeuvMMWOey2-35" target="I_MQHrugHJeuvMMWOey2-32">
          <mxGeometry relative="1" as="geometry" />
        </mxCell>
        <mxCell id="I_MQHrugHJeuvMMWOey2-38" value="AXI" style="edgeLabel;html=1;align=center;verticalAlign=middle;resizable=0;points=[];" vertex="1" connectable="0" parent="I_MQHrugHJeuvMMWOey2-37">
          <mxGeometry x="-0.4769" relative="1" as="geometry">
            <mxPoint x="14" as="offset" />
          </mxGeometry>
        </mxCell>
        <mxCell id="I_MQHrugHJeuvMMWOey2-45" style="edgeStyle=orthogonalEdgeStyle;rounded=0;orthogonalLoop=1;jettySize=auto;html=1;endArrow=none;startFill=1;startArrow=classic;" edge="1" parent="1" source="I_MQHrugHJeuvMMWOey2-35">
          <mxGeometry relative="1" as="geometry">
            <mxPoint x="586" y="230" as="targetPoint" />
          </mxGeometry>
        </mxCell>
        <mxCell id="I_MQHrugHJeuvMMWOey2-35" value="DMA" style="rounded=0;whiteSpace=wrap;html=1;fillColor=#e1d5e7;strokeColor=#9673a6;fontStyle=0" vertex="1" parent="1">
          <mxGeometry x="470" y="210" width="90" height="40" as="geometry" />
        </mxCell>
        <mxCell id="I_MQHrugHJeuvMMWOey2-44" value="" style="shape=flexArrow;endArrow=classic;startArrow=classic;html=1;rounded=0;width=6;endSize=2.7011235955056176;targetPerimeterSpacing=0;endWidth=6.966292134831461;startWidth=6.966292134831461;startSize=2.7011235955056176;fillColor=light-dark(#FFB570,#6FC76F);strokeColor=#FFB570;" edge="1" parent="1">
          <mxGeometry width="100" height="100" relative="1" as="geometry">
            <mxPoint x="590" y="210" as="sourcePoint" />
            <mxPoint x="590" y="350" as="targetPoint" />
          </mxGeometry>
        </mxCell>
        <mxCell id="I_MQHrugHJeuvMMWOey2-47" style="edgeStyle=orthogonalEdgeStyle;rounded=0;orthogonalLoop=1;jettySize=auto;html=1;exitX=0;exitY=0.5;exitDx=0;exitDy=0;" edge="1" parent="1" source="I_MQHrugHJeuvMMWOey2-46">
          <mxGeometry relative="1" as="geometry">
            <mxPoint x="593" y="230" as="targetPoint" />
          </mxGeometry>
        </mxCell>
        <mxCell id="I_MQHrugHJeuvMMWOey2-46" value="设备0" style="rounded=0;whiteSpace=wrap;html=1;fillColor=#f5f5f5;strokeColor=#666666;fontColor=#333333;" vertex="1" parent="1">
          <mxGeometry x="620" y="215" width="50" height="30" as="geometry" />
        </mxCell>
        <mxCell id="I_MQHrugHJeuvMMWOey2-51" style="edgeStyle=orthogonalEdgeStyle;rounded=0;orthogonalLoop=1;jettySize=auto;html=1;exitX=0;exitY=0.5;exitDx=0;exitDy=0;" edge="1" parent="1" source="I_MQHrugHJeuvMMWOey2-52">
          <mxGeometry relative="1" as="geometry">
            <mxPoint x="593" y="265" as="targetPoint" />
          </mxGeometry>
        </mxCell>
        <mxCell id="I_MQHrugHJeuvMMWOey2-52" value="设备1" style="rounded=0;whiteSpace=wrap;html=1;fillColor=#f5f5f5;fontColor=#333333;strokeColor=#666666;" vertex="1" parent="1">
          <mxGeometry x="620" y="250" width="50" height="30" as="geometry" />
        </mxCell>
        <mxCell id="I_MQHrugHJeuvMMWOey2-53" style="edgeStyle=orthogonalEdgeStyle;rounded=0;orthogonalLoop=1;jettySize=auto;html=1;exitX=0;exitY=0.5;exitDx=0;exitDy=0;" edge="1" parent="1" source="I_MQHrugHJeuvMMWOey2-54">
          <mxGeometry relative="1" as="geometry">
            <mxPoint x="593" y="300" as="targetPoint" />
          </mxGeometry>
        </mxCell>
        <mxCell id="I_MQHrugHJeuvMMWOey2-54" value="设备2" style="rounded=0;whiteSpace=wrap;html=1;fillColor=#f5f5f5;fontColor=#333333;strokeColor=#666666;" vertex="1" parent="1">
          <mxGeometry x="620" y="285" width="50" height="30" as="geometry" />
        </mxCell>
        <mxCell id="I_MQHrugHJeuvMMWOey2-55" value="AXI Interconnect" style="text;html=1;align=center;verticalAlign=middle;resizable=0;points=[];autosize=1;strokeColor=none;fillColor=none;" vertex="1" parent="1">
          <mxGeometry x="590" y="320" width="110" height="30" as="geometry" />
        </mxCell>
      </root>
    </mxGraphModel>
  </diagram>
</mxfile>
